<?xml version="1.0" encoding="UTF-8" standalone="no"?>
<svg width="1920" height="1080" viewBox="0 0 1920 1080" xmlns="http://www.w3.org/2000/svg">
  <!-- Dark background -->
  <rect width="1920" height="1080" fill="#0a0e17"/>
  
  <!-- Abstract pattern - grid lines -->
  <g opacity="0.25" stroke="#3ccfcf" stroke-width="1.5">
    <!-- Horizontal lines -->
    <line x1="0" y1="100" x2="1920" y2="100" />
    <line x1="0" y1="300" x2="1920" y2="300" />
    <line x1="0" y1="500" x2="1920" y2="500" />
    <line x1="0" y1="700" x2="1920" y2="700" />
    <line x1="0" y1="900" x2="1920" y2="900" />
    
    <!-- Vertical lines -->
    <line x1="100" y1="0" x2="100" y2="1080" />
    <line x1="400" y1="0" x2="400" y2="1080" />
    <line x1="700" y1="0" x2="700" y2="1080" />
    <line x1="1000" y1="0" x2="1000" y2="1080" />
    <line x1="1300" y1="0" x2="1300" y2="1080" />
    <line x1="1600" y1="0" x2="1600" y2="1080" />
    <line x1="1900" y1="0" x2="1900" y2="1080" />
  </g>
  
  <!-- Abstract data/molecule visualization -->
  <g opacity="0.25">
    <!-- Element 1 - Cluster at top left-->
    <circle cx="300" cy="200" r="5" fill="#3ccfcf" />
    <circle cx="330" cy="230" r="3" fill="#3ccfcf" />
    <circle cx="260" cy="220" r="4" fill="#3ccfcf" />
    <circle cx="290" cy="260" r="3" fill="#3ccfcf" />
    <line x1="300" y1="200" x2="330" y2="230" stroke="#3ccfcf" stroke-width="1.5" />
    <line x1="300" y1="200" x2="260" y2="220" stroke="#3ccfcf" stroke-width="1.5" />
    <line x1="300" y1="200" x2="290" y2="260" stroke="#3ccfcf" stroke-width="1.5" />
    <line x1="260" y1="220" x2="290" y2="260" stroke="#3ccfcf" stroke-width="1.5" />
    
    <!-- Element 2 - Cluster at bottom right-->
    <circle cx="1600" cy="800" r="5" fill="#3ccfcf" />
    <circle cx="1630" cy="830" r="3" fill="#3ccfcf" />
    <circle cx="1560" cy="820" r="4" fill="#3ccfcf" />
    <circle cx="1590" cy="860" r="3" fill="#3ccfcf" />
    <line x1="1600" y1="800" x2="1630" y2="830" stroke="#3ccfcf" stroke-width="1.5" />
    <line x1="1600" y1="800" x2="1560" y2="820" stroke="#3ccfcf" stroke-width="1.5" />
    <line x1="1600" y1="800" x2="1590" y2="860" stroke="#3ccfcf" stroke-width="1.5" />
    <line x1="1560" y1="820" x2="1590" y2="860" stroke="#3ccfcf" stroke-width="1.5" />
    
    <!-- Element 3 - DNA-like helix -->
    <path d="M800,100 Q900,200 800,300 Q700,400 800,500 Q900,600 800,700 Q700,800 800,900" 
          stroke="#3ccfcf" stroke-width="2.5" fill="none" />
    <path d="M1000,100 Q900,200 1000,300 Q1100,400 1000,500 Q900,600 1000,700 Q1100,800 1000,900" 
          stroke="#3ccfcf" stroke-width="2.5" fill="none" />
    
    <!-- Connecting nodes -->
    <circle cx="800" cy="100" r="4" fill="#3ccfcf" />
    <circle cx="1000" cy="100" r="4" fill="#3ccfcf" />
    <line x1="800" y1="100" x2="1000" y2="100" stroke="#3ccfcf" stroke-width="1.5" />
    
    <circle cx="800" cy="300" r="4" fill="#3ccfcf" />
    <circle cx="1000" cy="300" r="4" fill="#3ccfcf" />
    <line x1="800" y1="300" x2="1000" y2="300" stroke="#3ccfcf" stroke-width="1.5" />
    
    <circle cx="800" cy="500" r="4" fill="#3ccfcf" />
    <circle cx="1000" cy="500" r="4" fill="#3ccfcf" />
    <line x1="800" y1="500" x2="1000" y2="500" stroke="#3ccfcf" stroke-width="1.5" />
    
    <circle cx="800" cy="700" r="4" fill="#3ccfcf" />
    <circle cx="1000" cy="700" r="4" fill="#3ccfcf" />
    <line x1="800" y1="700" x2="1000" y2="700" stroke="#3ccfcf" stroke-width="1.5" />
    
    <circle cx="800" cy="900" r="4" fill="#3ccfcf" />
    <circle cx="1000" cy="900" r="4" fill="#3ccfcf" />
    <line x1="800" y1="900" x2="1000" y2="900" stroke="#3ccfcf" stroke-width="1.5" />
  </g>
  
  <!-- Gradient overlay for depth effect -->
  <defs>
    <radialGradient id="depth" cx="50%" cy="50%" r="70%" fx="50%" fy="50%">
      <stop offset="0%" stop-color="#0a0e17" stop-opacity="0" />
      <stop offset="100%" stop-color="#0a0e17" stop-opacity="0.4" />
    </radialGradient>
  </defs>
  <rect width="1920" height="1080" fill="url(#depth)" />
  
  <!-- Accent glow effects -->
  <defs>
    <filter id="glow" x="-50%" y="-50%" width="200%" height="200%">
      <feGaussianBlur stdDeviation="10" result="blur" />
      <feComposite in="SourceGraphic" in2="blur" operator="over" />
    </filter>
  </defs>
  
  <!-- Accent circles with glow -->
  <circle cx="200" cy="900" r="50" fill="#3ccfcf" opacity="0.15" filter="url(#glow)" />
  <circle cx="1700" cy="300" r="80" fill="#3ccfcf" opacity="0.15" filter="url(#glow)" />
  <circle cx="1200" cy="800" r="60" fill="#3ccfcf" opacity="0.15" filter="url(#glow)" />
</svg>